<svg xmlns="http://www.w3.org/2000/svg" xmlns:xlink="http://www.w3.org/1999/xlink" fill="none" version="1.1" width="200" height="200" viewBox="0 0 200 200"><g><g><path d="M168.05243,44.657295C168.05243,44.657295,114.332359,13.7945948,114.332359,13.7945948C105.532196,8.7351351,94.717804,8.7351351,85.917648,13.7945948C85.917648,13.7945948,32.197584,44.657295,32.197584,44.657295C23.397429,49.716759,18,59.037838,18,69.137295C18,69.137295,18,130.86271,18,130.86271C18,140.96217,23.416985,150.3027,32.197584,155.3427C32.197584,155.3427,85.917648,186.20541,85.917648,186.20541C94.717804,191.26488,105.532196,191.26488,114.332359,186.20541C114.332359,186.20541,168.05243,155.3427,168.05243,155.3427C176.85257,150.3027,182.25,140.96217,182.25,130.86271C182.25,130.86271,182.25,69.137295,182.25,69.137295C182.25,59.037838,176.83302,49.697296,168.05243,44.657295ZM172.56984,129.98703C172.56984,129.98703,110.303841,165.75352,110.303841,165.75352C110.166954,165.83134,110.03006,165.87027,109.893166,165.92865C109.85405,165.9481,109.834511,165.98703,109.775841,166.02594C103.596176,169.54811,97.084061,169.91783,91.060837,166.37622C91.021729,166.35675,90.963058,166.29837,90.92395,166.27893C90.806618,166.22054,90.689293,166.18163,90.591507,166.12325C90.591507,166.12325,27.641059900000002,129.96758,27.641059900000002,129.96758C24.4730034,128.13837,23.3778739,124.11026,25.2161283,120.95783C25.2161283,120.95783,25.3725748,120.70486,25.3725748,120.70486C27.210829699999998,117.55243,31.2589,116.46271,34.426953999999995,118.29189C34.426953999999995,118.29189,63.545692,135.02702,63.545692,135.02702C63.545692,135.02702,63.545692,110.29405,63.545692,110.29405C63.545692,110.29405,32.138915,92.255135,32.138915,92.255135C28.892635,90.387032,27.7975044,86.281082,29.655315,83.050812C31.532681,79.820549,35.658979,78.730812,38.905258,80.57946C38.905258,80.57946,73.812538,100.642166,73.812538,100.642166C75.729015,101.42054,77.078377,103.288651,77.078377,105.487572C77.078377,105.487572,77.078377,142.81081,77.078377,142.81081C77.078377,142.81081,93.720451,152.36542,93.720451,152.36542C93.720451,152.36542,93.720451,87.740547,93.720451,87.740547C93.720451,87.740547,61.687874,69.331898,61.687874,69.331898C58.441597,67.463787,57.346474,63.357838,59.204285,60.127563C61.08165,56.897297,65.207943,55.807571,68.45422400000001,57.656219C68.45422400000001,57.656219,93.720451,72.172977,93.720451,72.172977C93.720451,72.172977,93.720451,45.669197,93.720451,45.669197C93.720451,41.952435,96.751617,38.936216,100.486786,38.936216C104.22197,38.936216,107.253128,41.952435,107.253128,45.669197C107.253128,45.669197,107.253128,71.764328,107.253128,71.764328C107.253128,71.764328,131.81533000000002,57.656219,131.81533000000002,57.656219C135.06161,55.788113,139.1879,56.897297,141.06528,60.127563C142.94266,63.357838,141.82795,67.463787,138.58167,69.331898C138.58167,69.331898,107.253128,87.331902,107.253128,87.331902C107.253128,87.331902,107.253128,151.9373,107.253128,151.9373C107.253128,151.9373,123.38675,142.67459,123.38675,142.67459C123.38675,142.67459,123.38675,105.487572,123.38675,105.487572C123.38675,103.288651,124.7361,101.42054,126.65258,100.642166C126.65258,100.642166,161.55984,80.57946,161.55984,80.57946C164.80612,78.711349,168.93245,79.820549,170.8098,83.050812C172.68716,86.281082,171.57248,90.387032,168.3262,92.255135C168.3262,92.255135,136.91943,110.29405,136.91943,110.29405C136.91943,110.29405,136.91943,134.87135,136.91943,134.87135C136.91943,134.87135,165.76439,118.29189,165.76439,118.29189C168.93243,116.46271,173.00006,117.55243,174.83832,120.70486C174.83832,120.70486,174.9752,120.93838,174.9752,120.93838C176.81345,124.09081,175.71834,128.13837,172.55028,129.96758C172.55028,129.96758,172.56984,129.98703,172.56984,129.98703Z" fill="#121212" fill-opacity="1"/></g></g></svg>