<svg xmlns="http://www.w3.org/2000/svg" xmlns:xlink="http://www.w3.org/1999/xlink" fill="none" version="1.1" width="63" height="18" viewBox="0 0 63 18"><g><g><path d="M9.6828871,0.37945938L15.082584,3.4657297C15.96517,3.9697297,16.509661,4.9037833,16.509661,5.9137297L16.509661,12.086268C16.509661,13.096216,15.967135,14.030272,15.082584,14.534273L9.6828871,17.620544C8.7983389,18.126486,7.7113242,18.126486,6.8267717,17.620544L1.4270759,14.534273C0.54449099,14.030272,0,13.096216,0,12.086268L0,5.9137297C0,4.9037833,0.54252547,3.9716754,1.4270759,3.4657297L6.8267717,0.37945938C7.7113242,-0.12648652,8.7983389,-0.12648652,9.6828871,0.37945938ZM48.561283,2.6999998L48.316296,4.7106128L50.455853,4.7106128L50.700844,2.6999998L48.561283,2.6999998ZM21.320135,2.7171385L21.107811,4.5602012L24.929621,4.5602012L23.672016,15.300228L25.599255,15.300228L26.856855,4.5602012L30.792994,4.5602012L31.00532,2.7171385L21.320135,2.7171385ZM52.792091,15.300228L50.391209,15.300228L55.682941,8.8495102L52.236786,2.7171385L54.507008,2.7171385L57.054878,7.3750587L60.66436,2.7171385L62.999916,2.7171385L58.018494,8.983551L61.676979,15.300228L59.374096,15.300228L56.662895,10.458L52.792091,15.300228ZM9.2779617,15.575354L15.536657,11.998704L15.534692,11.996758C15.85313,11.813838,15.963204,11.409082,15.778434,11.09384L15.764673,11.070486C15.579902,10.755244,15.17104,10.64627,14.852602,10.829189L11.953239,12.487137L11.953239,10.029405L15.110105,8.2255135C15.436407,8.038703,15.54845,7.6281075,15.359743,7.3050823C15.17104,6.9820533,14.756285,6.8711348,14.429979,7.0579467L10.921261,9.0642176C10.728628,9.1420536,10.592995,9.3288651,10.592995,9.5487576L10.592995,13.26746L8.9713173,14.193731L8.9713173,7.7331901L12.120319,5.9331894C12.44662,5.7463789,12.558664,5.335784,12.369961,5.0127568C12.181255,4.6897292,11.766499,4.5788112,11.4402,4.7656217L8.9713173,6.1764336L8.9713173,3.5669191C8.9713173,3.1952434,8.6666384,2.8936219,8.2911959,2.8936219C7.9157529,2.8936219,7.611074,3.1952434,7.611074,3.5669191L7.611074,6.2172976L5.0714297,4.7656217C4.7451286,4.5807576,4.3303709,4.6897292,4.1416669,5.0127568C3.9549284,5.335784,4.0650048,5.7463789,4.3913054,5.9331894L7.611074,7.7740541L7.611074,14.236542L5.9382901,13.281081L5.9382901,9.5487576C5.9382901,9.3288651,5.802659,9.1420536,5.6100221,9.0642176L2.1013017,7.0579467C1.7749991,6.8730812,1.360243,6.9820533,1.1715391,7.3050823C0.9848007,7.6281075,1.0948786,8.038703,1.4211793,8.2255135L4.5780454,10.029405L4.5780454,12.502702L1.6511626,10.829189C1.332724,10.64627,0.92583156,10.755244,0.74105698,11.070486L0.7253328,11.095782C0.54055995,11.411026,0.65063608,11.813838,0.96907473,11.996758L7.2965679,15.612327C7.3063955,15.618163,7.3181896,15.622054,7.3299842,15.627893C7.3339152,15.629838,7.3398118,15.635675,7.3437428,15.637623C7.9491696,15.991784,8.6037378,15.95481,9.2248878,15.602595C9.2307844,15.5987,9.2327499,15.59481,9.236681,15.592865C9.2504435,15.587027,9.2642031,15.583136,9.2779617,15.575354ZM47.189354,15.299843L49.067589,15.299843L50.194538,5.9672461L48.316296,5.9672461L47.189354,15.299843ZM37.943718,5.9673338L37.06176,13.456867L34.824207,13.473622Q33.925919,13.473622,33.517601,13.138522Q33.125626,12.803417,33.125626,11.932152C33.125626,11.675241,33.136513,11.47418,33.158287,11.328968L33.795258,5.9673338L31.917019,5.9673338L31.280048,11.278704C31.247385,11.580297,31.231054,11.859547,31.231054,12.116459Q31.231054,15.299931,34.611885,15.299931L38.711349,15.299931L39.82196,5.9673338L37.943718,5.9673338ZM46.654282,7.7936406Q45.641666,7.7601309,45.347679,7.7601309C44.650829,7.7601309,44.128189,7.9332657,43.779758,8.2795382C43.431332,8.6146402,43.213566,9.1731453,43.126457,9.9550495L42.473156,15.299931L40.594921,15.299931L41.231888,10.005316C41.39521,8.5867157,41.808968,7.5590706,42.473156,6.9223752Q43.485775,5.9673347,45.560005,5.9673338C46.104424,5.9673338,46.567177,5.9840889,46.948273,6.0175996L46.654282,7.7936406Z" fill-rule="evenodd" fill="#121212" fill-opacity="1"/></g></g></svg>